<svg t="1713842839066" class="icon" viewBox="0 0 1024 1024" version="1.1" xmlns="http://www.w3.org/2000/svg" p-id="4081" width="256" height="256"><path d="M154.432 233.856c-36.928 0-66.752-22.976-66.752-51.456v-59.136c0-28.416 29.824-51.456 66.752-51.456h825.088a62.72 62.72 0 0 0-61.696-54.08H103.552a63.488 63.488 0 0 0-63.552 63.488v862.464c0 35.136 28.416 63.552 63.552 63.552h814.272a63.488 63.488 0 0 0 63.552-63.552V233.856H154.432z" fill="#FAD97F" p-id="4082"></path><path d="M917.824 1023.232H103.552a79.68 79.68 0 0 1-79.552-79.552V81.28C24 37.44 59.712 1.792 103.552 1.792h814.272c37.12 0 68.48 25.92 76.48 62.4a16 16 0 0 1-14.016 23.68H154.432c-27.52 0-50.752 16.192-50.752 35.456v59.072c0 19.2 23.232 35.456 50.752 35.456h826.944a16 16 0 0 1 16 16v709.824c0 43.904-35.712 79.552-79.552 79.552zM103.552 33.728a47.552 47.552 0 0 0-47.552 47.488v862.464c0 26.24 21.312 47.552 47.552 47.552h814.272c26.24 0 47.552-21.312 47.552-47.552V249.856H154.432c-45.632 0-82.752-30.272-82.752-67.456v-59.136c0-37.184 37.12-67.456 82.752-67.456h802.496a45.824 45.824 0 0 0-39.104-22.08H103.552z" fill="" p-id="4083"></path><path d="M154.432 233.856V993.92" fill="#FAD97F" p-id="4084"></path><path d="M154.432 1009.92a16 16 0 0 1-16-16V233.856a16 16 0 0 1 32 0V993.92a16 16 0 0 1-16 16z" fill="" p-id="4085"></path><path d="M562.304 158.976h145.088v218.432L634.88 304.96 562.304 377.408z" fill="#F2385A" p-id="4086"></path><path d="M707.392 393.408a16 16 0 0 1-11.328-4.672l-61.184-61.12-61.248 61.12a16 16 0 0 1-27.328-11.328V158.976a16 16 0 0 1 16-16h145.088a16 16 0 0 1 16 16v218.496a16 16 0 0 1-9.856 14.784 17.408 17.408 0 0 1-6.144 1.152zM578.304 174.976v163.904l45.248-45.184a16 16 0 0 1 22.656 0l45.184 45.184v-163.84H578.304z" fill="" p-id="4087"></path><path d="M464 511.616h37.44c20.736 0 30.464 3.456 29.056 10.432-1.344 2.688-5.504 4.096-12.416 4.096a952.96 952.96 0 0 1-51.968 2.048c1.344 16.64 5.504 33.28 12.48 49.92 8.32-9.664 13.184-22.208 14.592-37.44 2.752-4.16 6.912-4.16 12.416 0 5.504 5.568 4.16 17.344-4.16 35.328-4.16 6.912-7.68 11.84-10.432 14.592 15.232 11.072 31.872 18.048 49.92 20.8 11.008 1.344 18.688 2.752 22.848 4.096-12.416 24.96-28.416 33.92-47.808 27.008-15.232-4.096-30.528-15.872-45.696-35.328a68.096 68.096 0 0 1-43.648 20.864c-8.32 0-12.48-1.344-12.48-4.16 1.408-2.752 2.752-4.096 4.16-4.096 19.392-6.912 33.92-15.936 43.648-27.072-9.728-16.704-15.936-38.848-18.688-66.56-20.8 0-38.784 0.704-54.08 2.112-5.504 0-9.024 7.616-10.368 22.848a206.08 206.08 0 0 0 37.376-6.208c5.568-4.224 12.48-3.52 20.8 2.048 1.408 1.344 2.048 3.52 2.048 6.272v27.008c0 6.912-3.456 14.592-10.368 22.848-15.232 11.072-28.416 13.12-39.488 6.208a30.912 30.912 0 0 1-6.208-8.32c0-1.344 2.112-1.344 6.208 0 19.392 0 29.12-7.552 29.12-22.784 1.408-11.136-0.704-17.344-6.272-18.816a122.24 122.24 0 0 0-33.28 4.16c-6.912 30.528-15.232 49.856-24.96 58.176-13.76 9.728-26.24 10.432-37.312 2.112a335.936 335.936 0 0 1-4.16-8.32l8.32-4.096a48.768 48.768 0 0 0 16.64-10.432c23.552-29.056 29.12-56.768 16.64-83.136v-4.096a13.376 13.376 0 0 1 10.368-10.432 16 16 0 0 1 6.272 2.112c4.096 1.344 8.96 3.456 14.528 6.208 13.824 1.408 32.512 1.408 56.064 0 0-12.48-0.704-21.44-2.112-27.008-1.344-9.728 4.224-13.184 16.64-10.432 5.568 2.752 9.024 6.272 10.432 10.368-1.408 8.32-2.112 17.344-2.112 27.072z m33.28-24.96c5.568-8.32 11.072-10.432 16.64-6.208 6.912 6.912 6.912 12.416 0 16.64a60.416 60.416 0 0 1-27.008 6.208c-2.816-1.408-2.112-3.456 2.048-6.208 2.752-4.224 5.568-7.68 8.32-10.432zM651.072 542.72c-5.568 13.888-7.68 31.872-6.272 54.08 0 5.568 2.048 7.616 6.272 6.272a42.304 42.304 0 0 0 18.688-16.64c2.752-1.344 4.096 0 4.096 4.096-4.096 13.888-14.528 27.776-31.104 41.536-11.136 8.32-20.096 8.32-27.072 0-1.344-1.344-2.048-4.736-2.048-10.304 4.16-8.32 6.912-14.592 8.32-18.688 2.752-12.48 4.16-23.552 4.16-33.28s-2.816-15.232-8.32-16.64c-5.568 0-11.136 0.704-16.64 2.048a330.752 330.752 0 0 1-18.688 4.16c-4.096 0-6.208-2.752-6.208-8.32 4.096-13.824 9.664-20.736 16.64-20.736 2.752 2.752 11.072 4.864 24.96 6.208a81.28 81.28 0 0 0 16.64-6.208c11.008-1.408 16.576 2.752 16.576 12.416z m10.368-31.104c1.344 2.752-1.408 4.864-8.32 6.208-11.136 0-20.8-2.048-29.12-6.208-9.664-5.568-11.776-13.184-6.208-22.848 6.848-5.568 13.12-5.568 18.688 0 5.504 8.32 13.824 15.936 24.96 22.848z m56.128 8.32a34.816 34.816 0 0 0 0-16.64c-11.136 0-22.208 1.408-33.28 4.16-5.568 2.752-8.32 0.704-8.32-6.272 5.504-8.32 11.072-13.12 16.64-14.528 2.752-1.344 6.848-1.344 12.416 0 9.664 1.408 20.8 2.112 33.28 2.112h49.856c6.912 1.344 10.368 3.456 10.368 6.208 1.344 4.16-0.704 6.912-6.208 8.32h-49.856a53.44 53.44 0 0 0-2.112 16.64c5.568 1.408 13.184 0.704 22.848-2.112a19.84 19.84 0 0 1 12.48 0 20.8 20.8 0 0 1 8.32 10.432 80.384 80.384 0 0 0-6.272 24.96c20.736 1.344 38.72 2.048 54.016 2.048-6.912 19.392-15.232 27.008-24.96 22.848a328.32 328.32 0 0 0-20.736-6.272 312.576 312.576 0 0 0-68.544-6.272c-19.456 1.408-34.688 5.568-45.76 12.48-5.568 1.344-9.024 0-10.368-4.16 0-4.096 1.344-8.32 4.096-12.416a56.448 56.448 0 0 1 14.592-10.432c4.16 0 9.664 0.768 16.64 2.112 4.16 0 10.368-0.704 18.688-2.112a63.808 63.808 0 0 0 2.112-18.688c-8.32 0-18.048 2.048-29.12 6.272-4.096 0-5.568-2.752-4.096-8.32 4.096-6.912 8.32-11.072 12.416-12.48 4.224 1.408 11.136 2.112 20.864 2.112z m-2.112 58.176c17.984 2.752 34.624 2.752 49.856 0 15.232-5.568 23.552-2.112 24.96 10.368-1.344 9.664-2.752 21.504-4.096 35.328-2.816 11.136-11.136 13.888-24.96 8.32a209.728 209.728 0 0 0-41.536 0c-13.888 6.912-22.208 4.864-24.96-6.272l-4.16-37.376c1.344-12.48 9.6-15.936 24.896-10.368z m-4.16 29.056a13.12 13.12 0 0 0 10.368 10.368c27.712 1.408 42.24-0.64 43.648-6.208 1.344-8.32 0.704-13.888-2.048-16.64a40.128 40.128 0 0 0-12.416-2.112h-24.96a40.512 40.512 0 0 0-12.48 2.112 28.8 28.8 0 0 0-2.112 12.48z m29.056-56.128c6.912 1.408 13.888 2.112 20.8 2.112 1.344-9.728 0.704-16.64-2.048-20.8a43.968 43.968 0 0 0-18.752 0 43.648 43.648 0 0 0 0 18.688z" fill="" p-id="4088"></path></svg>